<svg width="225" height="225" viewBox="0 0 225 225" fill="none" xmlns="http://www.w3.org/2000/svg">
<path d="M38.5 152.5H137.608C144.574 152.5 150.624 147.704 152.213 140.922L167.287 76.5784C168.876 69.7959 174.926 65 181.892 65H194.5" stroke="#111111" stroke-width="15" stroke-linecap="round"/>
<path fill-rule="evenodd" clip-rule="evenodd" d="M63 199.5C72.665 199.5 80.5 191.665 80.5 182C80.5 172.335 72.665 164.5 63 164.5C53.335 164.5 45.5 172.335 45.5 182C45.5 191.665 53.335 199.5 63 199.5ZM63.5 187.5C66.2614 187.5 68.5 185.261 68.5 182.5C68.5 179.739 66.2614 177.5 63.5 177.5C60.7386 177.5 58.5 179.739 58.5 182.5C58.5 185.261 60.7386 187.5 63.5 187.5Z" fill="#111111"/>
<path fill-rule="evenodd" clip-rule="evenodd" d="M118 199.5C127.665 199.5 135.5 191.665 135.5 182C135.5 172.335 127.665 164.5 118 164.5C108.335 164.5 100.5 172.335 100.5 182C100.5 191.665 108.335 199.5 118 199.5ZM117.5 187.5C120.261 187.5 122.5 185.261 122.5 182.5C122.5 179.739 120.261 177.5 117.5 177.5C114.739 177.5 112.5 179.739 112.5 182.5C112.5 185.261 114.739 187.5 117.5 187.5Z" fill="#111111"/>
<path d="M146 82.5L90.6213 27.1213C89.4497 25.9497 87.5503 25.9497 86.3787 27.1213L31 82.5" stroke="#06A5DE" stroke-width="10" stroke-linecap="round"/>
<path fill-rule="evenodd" clip-rule="evenodd" d="M38.5 90.0002L84.9645 43.5358C86.9171 41.5831 90.0829 41.5831 92.0355 43.5358L138.5 90.0002V137C138.5 138.657 137.157 140 135.5 140H41.5C39.8431 140 38.5 138.657 38.5 137V90.0002ZM71.5 85C71.5 83.8954 72.3954 83 73.5 83H84.5C85.6046 83 86.5 83.8954 86.5 85V96C86.5 97.1046 85.6046 98 84.5 98H73.5C72.3954 98 71.5 97.1046 71.5 96V85ZM73.5 102C72.3954 102 71.5 102.895 71.5 104V115C71.5 116.105 72.3954 117 73.5 117H84.5C85.6046 117 86.5 116.105 86.5 115V104C86.5 102.895 85.6046 102 84.5 102H73.5ZM90.5 85C90.5 83.8954 91.3954 83 92.5 83H103.5C104.605 83 105.5 83.8954 105.5 85V96C105.5 97.1046 104.605 98 103.5 98H92.5C91.3954 98 90.5 97.1046 90.5 96V85ZM92.5 102C91.3954 102 90.5 102.895 90.5 104V115C90.5 116.105 91.3954 117 92.5 117H103.5C104.605 117 105.5 116.105 105.5 115V104C105.5 102.895 104.605 102 103.5 102H92.5Z" fill="#06A5DE"/>
<path d="M84.9645 43.5358L84.6109 43.1822L84.6109 43.1822L84.9645 43.5358ZM38.5 90.0002L38.1464 89.6467L38 89.7931V90.0002H38.5ZM92.0355 43.5358L91.682 43.8893L92.0355 43.5358ZM138.5 90.0002H139V89.7931L138.854 89.6467L138.5 90.0002ZM84.6109 43.1822L38.1464 89.6467L38.8536 90.3538L85.318 43.8893L84.6109 43.1822ZM92.3891 43.1822C90.2412 41.0343 86.7588 41.0343 84.6109 43.1822L85.318 43.8893C87.0754 42.1319 89.9246 42.1319 91.682 43.8893L92.3891 43.1822ZM138.854 89.6467L92.3891 43.1822L91.682 43.8893L138.146 90.3538L138.854 89.6467ZM139 137V90.0002H138V137H139ZM135.5 140.5C137.433 140.5 139 138.933 139 137H138C138 138.381 136.881 139.5 135.5 139.5V140.5ZM41.5 140.5H135.5V139.5H41.5V140.5ZM38 137C38 138.933 39.567 140.5 41.5 140.5V139.5C40.1193 139.5 39 138.381 39 137H38ZM38 90.0002V137H39V90.0002H38ZM73.5 82.5C72.1193 82.5 71 83.6193 71 85H72C72 84.1716 72.6716 83.5 73.5 83.5V82.5ZM84.5 82.5H73.5V83.5H84.5V82.5ZM87 85C87 83.6193 85.8807 82.5 84.5 82.5V83.5C85.3284 83.5 86 84.1716 86 85H87ZM87 96V85H86V96H87ZM84.5 98.5C85.8807 98.5 87 97.3807 87 96H86C86 96.8284 85.3284 97.5 84.5 97.5V98.5ZM73.5 98.5H84.5V97.5H73.5V98.5ZM71 96C71 97.3807 72.1193 98.5 73.5 98.5V97.5C72.6716 97.5 72 96.8284 72 96H71ZM71 85V96H72V85H71ZM72 104C72 103.172 72.6716 102.5 73.5 102.5V101.5C72.1193 101.5 71 102.619 71 104H72ZM72 115V104H71V115H72ZM73.5 116.5C72.6716 116.5 72 115.828 72 115H71C71 116.381 72.1193 117.5 73.5 117.5V116.5ZM84.5 116.5H73.5V117.5H84.5V116.5ZM86 115C86 115.828 85.3284 116.5 84.5 116.5V117.5C85.8807 117.5 87 116.381 87 115H86ZM86 104V115H87V104H86ZM84.5 102.5C85.3284 102.5 86 103.172 86 104H87C87 102.619 85.8807 101.5 84.5 101.5V102.5ZM73.5 102.5H84.5V101.5H73.5V102.5ZM92.5 82.5C91.1193 82.5 90 83.6193 90 85H91C91 84.1716 91.6716 83.5 92.5 83.5V82.5ZM103.5 82.5H92.5V83.5H103.5V82.5ZM106 85C106 83.6193 104.881 82.5 103.5 82.5V83.5C104.328 83.5 105 84.1716 105 85H106ZM106 96V85H105V96H106ZM103.5 98.5C104.881 98.5 106 97.3807 106 96H105C105 96.8284 104.328 97.5 103.5 97.5V98.5ZM92.5 98.5H103.5V97.5H92.5V98.5ZM90 96C90 97.3807 91.1193 98.5 92.5 98.5V97.5C91.6716 97.5 91 96.8284 91 96H90ZM90 85V96H91V85H90ZM91 104C91 103.172 91.6716 102.5 92.5 102.5V101.5C91.1193 101.5 90 102.619 90 104H91ZM91 115V104H90V115H91ZM92.5 116.5C91.6716 116.5 91 115.828 91 115H90C90 116.381 91.1193 117.5 92.5 117.5V116.5ZM103.5 116.5H92.5V117.5H103.5V116.5ZM105 115C105 115.828 104.328 116.5 103.5 116.5V117.5C104.881 117.5 106 116.381 106 115H105ZM105 104V115H106V104H105ZM103.5 102.5C104.328 102.5 105 103.172 105 104H106C106 102.619 104.881 101.5 103.5 101.5V102.5ZM92.5 102.5H103.5V101.5H92.5V102.5Z" fill="#06A5DE"/>
<path d="M55 45.5L36.5 64V34.5C36.5 33.3954 37.3954 32.5 38.5 32.5H53C54.1046 32.5 55 33.3954 55 34.5V45.5Z" fill="#06A5DE" stroke="#06A5DE"/>
</svg>
